<?xml version="1.0" encoding="UTF-8" standalone="no"?>
<!DOCTYPE svg PUBLIC "-//W3C//DTD SVG 1.1//EN" "http://www.w3.org/Graphics/SVG/1.1/DTD/svg11.dtd">
<svg width="100%" height="100%" viewBox="0 0 1799 588" version="1.1" xmlns="http://www.w3.org/2000/svg" xmlns:xlink="http://www.w3.org/1999/xlink" xml:space="preserve" xmlns:serif="http://www.serif.com/" style="fill-rule:evenodd;clip-rule:evenodd;stroke-linejoin:round;stroke-miterlimit:2;">
    <g transform="matrix(1,0,0,1,-1090.51,-272.79)">
        <g transform="matrix(0.656389,0,0,0.656389,68.593,-824.693)">
            <g transform="matrix(824.964,0,0,824.964,4305.65,2280)">
            </g>
            <text x="1528px" y="2280px" style="font-family:'HurmeGeometricSans1-Bold', 'Hurme Geometric Sans 1', sans-serif;font-weight:700;font-size:824.964px;fill:rgb(118,0,112);">CL<tspan x="2515.48px 3038.51px 3830.47px " y="2280px 2280px 2280px ">AWS</tspan></text>
        </g>
        <g transform="matrix(0.656389,0,0,0.656389,96.3379,-637.566)">
            <g transform="matrix(304.697,0,0,304.697,4269.36,2280)">
            </g>
            <text x="1528px" y="2280px" style="font-family:'MacSans-Regular', 'Mac Sans';font-size:304.697px;fill:rgb(118,0,112);">R<tspan x="1799.49px 2081.94px 2326.61px 2492.37px 2785.18px 3056.67px 3248.63px 3498.78px 3737.97px 4020.43px " y="2280px 2280px 2280px 2280px 2280px 2280px 2280px 2280px 2280px 2280px ">ACING TEAM</tspan></text>
        </g>
    </g>
</svg>
